#!OML:ASF H:\Martial Arts Walks\Project 1\Capture day 1\Session 1\male.ASF
:FULLY-SPECIFIED
:DEGREES
2320
root -3.30607 14.5175 -27.3488 7.88767 15.8942 9.08913
lowerback 10.696 0.0658262 -14.0265
upperback -2.20391 -1.88793 -0.579555
thorax -8.05589 -0.253856 7.60617
lowerneck -0.567578 -7.46042 -8.31682
upperneck 4.82363 -10.1016 6.49737
head 2.51083 -5.06503 3.30518
rclavicle 2.37672e-014 2.64384e-014
rhumerus -32.4602 10.7825 -72.1307
rradius 39.9796
rwrist 13.1899
rhand -3.74496 -46.9694
rfingers 7.12502
rthumb 21.9989 -75.7384
lclavicle 2.37672e-014 2.64384e-014
lhumerus -27.8701 -14.4374 90.1185
lradius 31.3258
lwrist -13.513
lhand -23.7486 24.1274
lfingers 7.12502
lthumb 2.7202 54.0898
rfemur -63.851 -17.5799 8.59933
rtibia 70.0976
rfoot -8.37965 13.9236
rtoes 4.34041
lfemur 14.6162 5.98513 -16.6995
ltibia 26.4721
lfoot -25.1628 32.3792
ltoes -23.7712
2321
root -3.3101 14.5154 -27.3464 7.89598 15.8879 9.11425
lowerback 10.7154 0.0616368 -14.0388
upperback -2.19694 -1.89751 -0.575233
thorax -8.05678 -0.258037 7.61995
lowerneck -0.547188 -7.44503 -8.31186
upperneck 4.8046 -10.0826 6.51272
head 2.49982 -5.05551 3.31149
rclavicle 7.05064e-014 2.5842e-014
rhumerus -32.4647 10.7805 -72.1061
rradius 39.8399
rwrist 13.2258
rhand -3.62628 -47.1462
rfingers 7.12502
rthumb 22.1128 -75.9017
lclavicle 7.05064e-014 2.5842e-014
lhumerus -27.8785 -14.3285 90.0725
lradius 31.2982
lwrist -13.5131
lhand -23.7884 24.1912
lfingers 7.12502
lthumb 2.68171 54.1541
rfemur -63.8899 -17.5635 8.58828
rtibia 70.1454
rfoot -8.35869 13.9188
rtoes 4.1397
lfemur 14.5878 5.9834 -16.71
ltibia 26.5258
lfoot -25.4537 32.2512
ltoes -23.5459
2322
root -3.31466 14.5128 -27.3452 7.90992 15.8643 9.11741
lowerback 10.7352 0.0709811 -14.0314
upperback -2.20156 -1.88781 -0.575039
thorax -8.07581 -0.252046 7.61515
lowerneck -0.501176 -7.4563 -8.24886
upperneck 4.77895 -10.0999 6.48502
head 2.47803 -5.06409 3.29167
rclavicle 9.62863e-015 2.5842e-015
rhumerus -32.4897 10.7405 -72.0876
rradius 39.6773
rwrist 13.269
rhand -3.72924 -46.9106
rfingers 7.12502
rthumb 22.0139 -75.6778
lclavicle 9.62863e-015 2.5842e-015
lhumerus -27.912 -14.2573 90.025
lradius 31.3032
lwrist -13.4843
lhand -23.8195 24.0705
lfingers 7.12502
lthumb 2.65171 54.0338
rfemur -63.955 -17.5251 8.60961
rtibia 70.1954
rfoot -8.33534 13.9
rtoes 3.78317
lfemur 14.5311 5.99893 -16.6974
ltibia 26.6122
lfoot -25.4596 32.2595
ltoes -23.7052
2323
root -3.31931 14.5106 -27.3446 7.85499 15.8667 9.13262
lowerback 10.8194 0.084129 -14.0345
upperback -2.17373 -1.88253 -0.576832
thorax -8.0949 -0.249254 7.61639
lowerneck -0.485792 -7.46631 -8.2702
upperneck 4.78821 -10.1198 6.58201
head 2.48823 -5.07293 3.32852
rclavicle 1.45361e-015 1.43125e-014
rhumerus -32.5511 10.6885 -72.0341
rradius 39.5733
rwrist 13.341
rhand -3.67736 -46.631
rfingers 7.12502
rthumb 22.0638 -75.3923
lclavicle 1.45361e-015 1.43125e-014
lhumerus -27.9616 -14.2077 89.9985
lradius 31.3833
lwrist -13.4864
lhand -23.7665 23.945
lfingers 7.12502
lthumb 2.70287 53.9076
rfemur -63.9335 -17.5034 8.58844
rtibia 70.2619
rfoot -8.28651 13.9047
rtoes 3.55892
lfemur 14.5419 6.00538 -16.6861
ltibia 26.709
lfoot -25.434 32.2917
ltoes -23.6387
2324
root -3.32346 14.508 -27.3436 7.89826 15.8548 9.14078
lowerback 10.7941 0.0777145 -14.0047
upperback -2.17861 -1.8839 -0.587028
thorax -8.08608 -0.252088 7.58788
lowerneck -0.462406 -7.46352 -8.2104
upperneck 4.74456 -10.1146 6.53329
head 2.46138 -5.07034 3.30246
rclavicle 2.79914e-014 8.15017e-015
rhumerus -32.5173 10.5909 -72.0225
rradius 39.3327
rwrist 13.4565
rhand -3.79786 -46.683
rfingers 7.12502
rthumb 21.9481 -75.4579
lclavicle 2.79914e-014 8.15017e-015
lhumerus -27.9887 -14.1199 89.921
lradius 31.3534
lwrist -13.5519
lhand -23.8514 24.0571
lfingers 7.12502
lthumb 2.62084 54.0208
rfemur -64.0423 -17.4878 8.61789
rtibia 70.336
rfoot -8.26564 13.8945
rtoes 3.02323
lfemur 14.4287 6.03888 -16.6687
ltibia 26.8525
lfoot -25.1435 32.457
ltoes -23.9622
2325
root -3.32774 14.505 -27.3445 7.8565 15.8712 9.133
lowerback 10.8529 0.0554046 -13.9702
upperback -2.14573 -1.91514 -0.580716
thorax -8.07627 -0.271011 7.58196
lowerneck -0.432079 -7.44135 -8.19511
upperneck 4.67786 -10.0858 6.55169
head 2.43123 -5.05575 3.30935
rclavicle -2.68856e-014 7.95139e-015
rhumerus -32.4414 10.5612 -71.9952
rradius 39.119
rwrist 13.5874
rhand -3.82257 -46.7668
rfingers 7.12502
rthumb 21.9243 -75.5445
lclavicle -2.68856e-014 7.95139e-015
lhumerus -28.0247 -14.0067 89.8413
lradius 31.3981
lwrist -13.5486
lhand -23.8176 24.0063
lfingers 7.12502
lthumb 2.65355 53.9696
rfemur -64.0633 -17.4845 8.64544
rtibia 70.4165
rfoot -8.2279 13.877
rtoes 2.56966
lfemur 14.3656 6.08366 -16.6125
ltibia 27.0628
lfoot -25.1913 32.4453
ltoes -24.0061
2326
root -3.33164 14.5021 -27.3467 7.81271 15.9163 9.11566
lowerback 10.9165 0.0219735 -13.9066
upperback -2.10967 -1.9574 -0.571688
thorax -8.06351 -0.296958 7.56467
lowerneck -0.420242 -7.41878 -8.23666
upperneck 4.62693 -10.0571 6.61697
head 2.41682 -5.04119 3.3419
rclavicle -6.55989e-015 2.40529e-014
rhumerus -32.4001 10.5373 -71.9511
rradius 38.9435
rwrist 13.6985
rhand -3.817 -46.8229
rfingers 7.12502
rthumb 21.9297 -75.6
lclavicle -6.55989e-015 2.40529e-014
lhumerus -28.0544 -13.9545 89.7817
lradius 31.4754
lwrist -13.4135
lhand -23.7257 24.2627
lfingers 7.12502
lthumb 2.7423 54.2248
rfemur -64.0922 -17.5152 8.70474
rtibia 70.4959
rfoot -8.16529 13.8336
rtoes 2.10664
lfemur 14.2371 6.11913 -16.5364
ltibia 27.3756
lfoot -25.3549 32.3949
ltoes -24.0297
2327
root -3.33665 14.4998 -27.352 7.75774 15.9578 9.0462
lowerback 11.0049 0.00326845 -13.7834
upperback -2.0787 -1.97671 -0.569015
thorax -8.07744 -0.312598 7.50405
lowerneck -0.389582 -7.43468 -8.19745
upperneck 4.56479 -10.0791 6.61875
head 2.38969 -5.05176 3.33624
rclavicle -1.65985e-014 -3.77691e-015
rhumerus -32.3466 10.4034 -71.9103
rradius 38.7445
rwrist 13.8092
rhand -3.89311 -46.7717
rfingers 7.12502
rthumb 21.8566 -75.5573
lclavicle -1.65985e-014 -3.77691e-015
lhumerus -28.0842 -13.9604 89.7153
lradius 31.5442
lwrist -13.359
lhand -23.7566 24.2318
lfingers 7.12502
lthumb 2.71247 54.1943
rfemur -64.1453 -17.5198 8.85012
rtibia 70.5762
rfoot -8.12566 13.6947
rtoes 1.43284
lfemur 14.0535 6.21579 -16.3813
ltibia 27.7693
lfoot -25.4717 32.3569
ltoes -24.0958
